<svg width="44" height="44" viewBox="0 0 44 44" fill="none" xmlns="http://www.w3.org/2000/svg">
<path d="M21 20.3V0C13.9 0.3 7.3 4.1 3.5 10.1L21 20.3Z" fill="#00AB4F"/>
<path d="M0 22C0 34.1 9.9 44 22 44C29.5 44 36.5 40.1 40.5 33.9L2.4 11.9C0.9 15 0 18.5 0 22Z" fill="#00AB4F"/>
<path d="M23 21.4L27.2 23.9H43.9C44 23.2 44 22.6 44 22C44 20.4 43.8 18.8 43.5 17.2H23V21.4Z" fill="#00AB4F"/>
<path d="M43.7 25.9H30.7L41.5 32.1C42.6 30.1 43.3 28 43.7 25.9Z" fill="#00AB4F"/>
<path d="M23 8.60001V15.2H42.9C42.1 12.8 41 10.6 39.4 8.60001H23Z" fill="#00AB4F"/>
<path d="M37.7 6.6C33.8 2.6 28.6 0.3 23 0V6.6H37.7Z" fill="#00AB4F"/>
</svg>
