<?xml version="1.0" encoding="utf-8"?>
<!-- Generator: Adobe Illustrator 26.5.0, SVG Export Plug-In . SVG Version: 6.00 Build 0)  -->
<svg version="1.0" id="Calque_1" xmlns="http://www.w3.org/2000/svg" xmlns:xlink="http://www.w3.org/1999/xlink" x="0px" y="0px"
	 viewBox="0 0 400 427" enable-background="new 0 0 400 427" xml:space="preserve">
<g id="L2">
	<g>
		<path fill="#CDB789" d="M203.4,397.9h-74.7c-8,0-14.5,6.5-14.5,14.5l0,0c0,8,6.5,14.5,14.5,14.5h74.7c8,0,14.5-6.5,14.5-14.5l0,0
			C217.9,404.5,211.3,397.9,203.4,397.9z"/>
		<g>
			<path fill="#CDB789" d="M203.4,398.3h-74.7c-7.8,0-14.2,6.4-14.2,14.2c0,2.8,0.8,5.4,2.2,7.6h98.6c1.4-2.2,2.2-4.8,2.2-7.6
				C217.5,404.7,211.2,398.3,203.4,398.3z"/>
			<path fill="#CDB789" d="M306,90H93.1c-4.6,0-8.3,3.7-8.3,8.3v313.4c0,4.6,3.7,8.3,8.3,8.3h22.8c-1.3-2.2-2.1-4.8-2.1-7.6
				c0-8.2,6.7-14.9,14.9-14.9h74.7c8.2,0,14.9,6.7,14.9,14.9c0,2.8-0.8,5.4-2.1,7.6H306c4.6,0,8.3-3.7,8.3-8.3V98.3
				C314.3,93.7,310.6,90,306,90z M221.9,312.1c-1.9,0-3.7-0.1-5.5-0.3c1.2,3.3,1.8,6.8,1.8,10.5c0,17.3-14.1,31.4-31.4,31.4
				s-31.4-14.1-31.4-31.4c0-15.6,11.3-28.5,26.2-31c-5.9-8.2-9.3-18.2-9.3-29c0-11.1,3.6-21.3,9.8-29.6
				c-32.6-2.6-58.2-29.9-58.2-63.1c0-35,28.4-63.3,63.3-63.3s63.3,28.4,63.3,63.3c0,17.2-6.8,32.7-17.9,44.1
				c22.4,4.9,39.1,24.8,39.1,48.6C271.6,289.8,249.4,312.1,221.9,312.1z"/>
		</g>
	</g>
</g>
</svg>
