<?xml version="1.0" encoding="utf-8"?>
<!-- Generator: Adobe Illustrator 26.5.0, SVG Export Plug-In . SVG Version: 6.00 Build 0)  -->
<svg version="1.0" id="Calque_1" xmlns="http://www.w3.org/2000/svg" xmlns:xlink="http://www.w3.org/1999/xlink" x="0px" y="0px"
	 viewBox="0 0 400 427" enable-background="new 0 0 400 427" xml:space="preserve">
<g id="L1">
	<g>
		<polygon fill="#CDB789" points="312.3,223.2 299.8,200.6 299.7,200.4 255.7,121 245.5,144 234.6,168.3 234.8,168.3 234.7,168.6 
			248.1,189.1 248.1,189.1 248.1,189.1 270.9,224.2 271.1,224.4 312.7,224.1 		"/>
		<polygon fill="#CDB789" points="130.1,227.7 129.8,228.1 129,228.6 87.3,228.6 143.8,331.1 145.2,331.1 145.6,273.1 158.3,272.9 
					"/>
		<polygon fill="#CDB789" points="257.6,330 312.3,226 271.5,226.3 244.7,272.1 255.3,272 255.3,330 		"/>
		<path fill="#CDB789" d="M228.2,274.2l-16.7,0.2c1.2-0.3,2.3-0.6,3.4-1l0,0c0.9-0.3,1.8-0.6,2.6-1c15-6.2,25.4-20.7,25.4-37.5l0,0
			c0-22.5-18.8-40.8-41.9-40.8s-41.9,18.3-41.9,40.8l0,0c0,17.1,10.8,31.8,26.2,37.8c0.9,0.3,1.8,0.7,2.6,0.9l0,0
			c1.1,0.4,2.3,0.7,3.4,0.9l-31.9,0.3l-11.9,0.1l-0.4,56.1v1v1l-0.1,14.8l-0.5,65.2l-0.1,11.4l106.9-1v-10.6v-65.9V332l0,0v-1v-1
			l0,0v-56.1L228.2,274.2L228.2,274.2z"/>
		<polygon fill="#CDB789" points="99.5,201.8 99.4,201.9 86.4,226.7 128.5,226.7 163.7,169.8 163.2,169.5 141,123.5 		"/>
		<polygon fill="#CDB789" points="164.6,168.1 233,167.3 243.8,143.1 253.8,120.3 142.1,121.3 		"/>
		<path fill="#CDB789" d="M199.5,25.3c-109,0-197.4,88.5-197.4,197.5v0.1c0,90,60.2,165.9,142.5,189.6l0.5-64.7l-12.3,0.1l0,0
			l12.3-0.1l0.1-14.8h-2.5L85.1,228.6h-0.3l-0.9-1.4l0.2-0.3l0,0l-0.1-0.1L97.7,201l0,0l42-80.1l-0.1-0.1l0.9-1.4l114.8-1.1l0.1,0.1
			h1.2l44.8,81.3l0,0l13.8,25L315,225l0,0l-56,106.4l-0.6,0.4l-0.1,0.2h-3v14.9l0,0v65.4C337.2,388.2,397,312.5,397,222.8v-0.1
			C397,113.6,308.5,25.2,199.5,25.3z"/>
	</g>
</g>
</svg>
