<?xml version="1.0" encoding="utf-8"?>
<!-- Generator: Adobe Illustrator 26.5.0, SVG Export Plug-In . SVG Version: 6.00 Build 0)  -->
<svg version="1.0" id="Calque_1" xmlns="http://www.w3.org/2000/svg" xmlns:xlink="http://www.w3.org/1999/xlink" x="0px" y="0px"
	 viewBox="0 0 400 427" enable-background="new 0 0 400 427" xml:space="preserve">
<g id="TDC">
	<g id="Layer_x0020_1_00000057860392313393996670000011213930419184913807_" enable-background="new    ">
		<polygon fill-rule="evenodd" clip-rule="evenodd" fill="#CDB789" points="126.2,340.3 146.9,334.1 167.7,327.9 197,327.9 
			226.2,328 246.9,334.1 267.7,340.3 267.7,357.9 246.9,364.1 226.2,370.2 196.9,370.2 167.6,370.2 146.9,364 126.2,357.8 
			126.2,349.1 		"/>
		<path fill-rule="evenodd" clip-rule="evenodd" fill="#CDB789" d="M165.6,43.4c-4.3-1.7-60.2-1.1-60.3-0.7
			c34.6,49,52.6,139.7,60.7,245.5c0,0,11.7,3.7,20.7,4.7C188,254.1,172.6,44.2,165.6,43.4L165.6,43.4z"/>
		<path fill-rule="evenodd" clip-rule="evenodd" fill="#CDB789" d="M227.5,43.4c4.3-1.7,60.2-1.1,60.3-0.7
			c-34.6,49-52.6,139.7-60.7,245.5c0,0-11.7,3.7-20.7,4.7C205.1,254.1,220.5,44.2,227.5,43.4L227.5,43.4z"/>
		<path fill-rule="evenodd" clip-rule="evenodd" fill="#CDB789" d="M186.6,293c6.7,0.3,13.4,0.3,19.9,0c-1.4-38.8,14-248.8,21-249.5
			c-20.5-1.4-41.1-1.4-61.9,0C172.6,44.2,188,254.1,186.6,293L186.6,293z"/>
		<path fill-rule="evenodd" clip-rule="evenodd" fill="#CDB789" d="M179.1,360.9c-9.1-1.7-40.4-13.1-40.5-13.2
			c19.9-31.4,19.1-31,27.3-55.6c0,0,11.8,4.6,20.8,4.3C188.1,306.8,181.9,354.4,179.1,360.9z"/>
		<path fill-rule="evenodd" clip-rule="evenodd" fill="#CDB789" d="M213,362.1c9.1-1.7,41.7-14.3,41.8-14.4
			c-19.9-31.4-19.4-31-27.5-55.6c0,0-11.8,4.6-20.8,4.3C205,306.8,210.2,355.6,213,362.1L213,362.1z"/>
		<path fill-rule="evenodd" clip-rule="evenodd" fill="#CDB789" d="M217.2,359.7h-40.9c2.6-5.5,11.9-52.8,10.5-63.3
			c6.5-0.1,12.9-0.1,19.6,0C205,306.9,214.5,354.2,217.2,359.7L217.2,359.7z"/>
		<path fill-rule="evenodd" clip-rule="evenodd" fill="#CDB789" d="M163.8,39c-3.6-1.7-54.9,0.2-55,0.6l-3.6,3.1
			c0.1-0.4,53.1-1,59.9,0.6l0,0c0.1,0,0.2,0,0.2,0.1l0,0C164.8,40.6,164.3,39.1,163.8,39L163.8,39z"/>
		<path fill-rule="evenodd" clip-rule="evenodd" fill="#CDB789" d="M215.3,39c3.6-1.7,57.1-0.7,57.2-0.3l15.2,3.9
			c-2.4-0.4-56-1-60.2,0.8l0,0l0,0c-0.3,0-0.6,0-0.9-0.1l0,0l0,0l0,0l0,0l0,0l0,0l0,0c-0.3,0-0.6,0-0.9-0.1l0,0l0,0l0,0l0,0l0,0l0,0
			c-0.3,0-0.6,0-0.9,0l0,0l0,0h-0.1l0,0c-0.3,0-0.6,0-0.8,0l0,0l0,0l0,0h-0.1l0,0c-0.3,0-0.6,0-0.8,0l0,0l0,0h-0.1l0,0
			c-0.3,0-0.5,0-0.8,0l0,0l0,0h-0.2l0,0l0,0c-0.2,0-0.5,0-0.7,0l0,0l0,0l0,0H221l0,0l0,0l0,0l0,0l0,0c-0.2,0-0.4,0-0.6,0l0,0l0,0
			l0,0h-0.3l0,0l0,0c-0.2,0-0.4,0-0.7,0l0,0l0,0l0,0h-0.3l0,0l0,0l0,0c-0.2,0-0.4,0-0.6,0l0,0l0,0l0,0h-0.3l0,0l0,0l0,0l0,0
			c-0.2,0-0.4,0-0.5,0l0,0l0,0l0,0l0,0l0,0h-0.4l0,0l0,0l0,0l0,0c-0.2,0-0.3,0-0.5,0l0,0l0,0l0,0l0,0h-0.4l0,0l0,0l0,0l0,0l0,0l0,0
			c-0.1,0-0.3,0-0.5,0l0,0l0,0l0,0l0,0l0,0l0,0h-0.4l0,0l0,0l0,0c-0.2,0-0.3,0-0.5,0l0,0l0,0l0,0l0,0l0,0l0,0h-0.4
			c0.5-2.3,1-3.6,1.4-3.7L215.3,39z"/>
		<path fill-rule="evenodd" clip-rule="evenodd" fill="#CDB789" d="M165.6,43.4c-0.1,0-0.1,0-0.2-0.1c-0.6-2.7-1.1-4.2-1.6-4.3
			c17.3-1.4,34.5-1.4,51.5,0c-0.4,0.1-0.9,1.3-1.4,3.7C197.9,42.1,181.8,42.3,165.6,43.4z"/>
		<path fill-rule="evenodd" clip-rule="evenodd" fill="#CDB789" d="M217.2,359.7v7l39.4-13l-1.8-6.1
			C254.6,347.8,226.3,358,217.2,359.7L217.2,359.7z"/>
		<path fill-rule="evenodd" clip-rule="evenodd" fill="#CDB789" d="M176.2,359.7v7l-39.4-13l1.8-6.1
			C138.8,347.8,167.1,358,176.2,359.7L176.2,359.7z"/>
		<polygon fill-rule="evenodd" clip-rule="evenodd" fill="#CDB789" points="271.8,363.7 267.7,357.9 267.7,340.3 271.8,344.5 		"/>
		<polygon fill-rule="evenodd" clip-rule="evenodd" fill="#CDB789" points="122.2,363.7 126.3,357.8 126.2,340.3 122.2,344.5 		"/>
		<polygon fill-rule="evenodd" clip-rule="evenodd" fill="#CDB789" points="165.3,376.9 167.7,370.2 197,370.2 226.3,370.2 
			228.7,376.9 		"/>
		<polygon fill-rule="evenodd" clip-rule="evenodd" fill="#CDB789" points="176.2,366.8 176.2,359.7 197,359.7 217.2,359.7 
			217.2,366.8 		"/>
		<polygon fill-rule="evenodd" clip-rule="evenodd" fill="#CDB789" points="226.2,370.2 228.7,376.9 271.8,363.7 267.7,357.9 		"/>
		<polygon fill-rule="evenodd" clip-rule="evenodd" fill="#CDB789" points="167.7,370.2 165.3,376.9 122.2,363.7 126.3,357.8 		"/>
		<polygon fill-rule="evenodd" clip-rule="evenodd" fill="#CDB789" points="122.1,412.4 122.2,363.7 165.3,376.9 165.3,425.7 		"/>
		<polygon fill-rule="evenodd" clip-rule="evenodd" fill="#CDB789" points="165.3,425.7 228.7,425.7 228.7,376.9 165.3,376.9 		"/>
		<polygon fill-rule="evenodd" clip-rule="evenodd" fill="#CDB789" points="228.6,425.7 271.7,412.4 271.8,363.7 228.7,376.9 		"/>
		<path fill-rule="evenodd" clip-rule="evenodd" fill="#CDB789" d="M165.9,288.2v3.9c0,0,11.8,4.6,20.8,4.3c0-1.7-0.1-3.5-0.1-3.5
			C177.6,291.9,165.9,288.2,165.9,288.2z"/>
		<path fill-rule="evenodd" clip-rule="evenodd" fill="#CDB789" d="M227.2,288.2v3.9c0,0-11.8,4.6-20.8,4.3c0-1.7,0.1-3.5,0.1-3.5
			C215.5,291.9,227.2,288.2,227.2,288.2z"/>
		<path fill-rule="evenodd" clip-rule="evenodd" fill="#CDB789" d="M206.4,296.5c0-1.7,0.1-3.5,0.1-3.5c-6.5,0.3-13.2,0.3-19.9,0
			c0,0,0.2,1.7,0.1,3.5C193.2,296.4,199.6,296.4,206.4,296.5L206.4,296.5z"/>
	</g>
</g>
</svg>
