<?xml version="1.0" encoding="utf-8"?>
<!-- Generator: Adobe Illustrator 26.5.0, SVG Export Plug-In . SVG Version: 6.00 Build 0)  -->
<svg version="1.0" id="Calque_1" xmlns="http://www.w3.org/2000/svg" xmlns:xlink="http://www.w3.org/1999/xlink" x="0px" y="0px"
	 viewBox="0 0 400 427" enable-background="new 0 0 400 427" xml:space="preserve">
<g id="CDL">
	<g id="g138_00000110445557867205099330000015115438712137083305_" transform="translate(0,-0.02502)">
		<g id="g106_00000038397669054012567110000005511760571599058321_">
			<g>
				<path id="path100_00000080191804874303774040000013366157545709432988_" fill="#CDB789" d="M126.1,426.8H277
					c0-10.2-1.1-20.4-3.2-30.4H129.3C127.2,406.4,126.1,416.6,126.1,426.8z"/>
				<path fill="#CDB789" d="M277,427H126.1c-0.1,0-0.2-0.1-0.2-0.2c0-10.2,1.1-20.4,3.2-30.4c0-0.1,0.1-0.2,0.2-0.2h144.5
					c0.1,0,0.2,0.1,0.2,0.2c2.1,10,3.2,20.2,3.2,30.4C277.2,426.9,277.1,427,277,427z M126.3,426.6h150.5c0-10.1-1.1-20.1-3.2-30
					H129.5C127.4,406.4,126.3,416.5,126.3,426.6z"/>
			</g>
			<g>
				<path id="path104_00000105393635015599687690000017008526531905751992_" fill="#CDB789" d="M129.8,394.4L129.8,394.4
					c-0.3,1,0.5,2,1.5,2h140.6c1,0,1.8-1,1.5-2l0,0c-0.2-0.7-0.8-1.2-1.5-1.2H131.3C130.6,393.2,130,393.7,129.8,394.4z"/>
				<path fill="#CDB789" d="M271.9,396.6H131.3c-0.6,0-1.1-0.2-1.4-0.7c-0.3-0.4-0.5-1-0.3-1.5h0.2h-0.2c0.2-0.8,0.9-1.4,1.7-1.4
					h140.5c0.8,0,1.5,0.6,1.7,1.4c0.1,0.6,0,1.1-0.3,1.6C273,396.3,272.4,396.6,271.9,396.6z M129.8,394.4l0.2,0.1
					c-0.1,0.4,0,0.9,0.3,1.2c0.3,0.3,0.7,0.5,1.1,0.5H272c0.4,0,0.8-0.2,1.1-0.5c0.3-0.3,0.4-0.8,0.3-1.2l0,0c-0.2-0.6-0.7-1-1.3-1
					H131.3c-0.6,0-1.2,0.4-1.3,1l0,0L129.8,394.4z"/>
			</g>
		</g>
		<g id="g116_00000057839609469189791920000005441647356192860301_">
			<g>
				<path id="path108_00000093157799549288777470000000525935091504745600_" fill="#CDB789" d="M280.5,246.9
					c-4.4,7.6-12.7,21.3-12.7,21.3c12.7-21.3-150.3-31.4-150.3-31.4l-8.5-20.4C109.1,216.3,293.6,217.6,280.5,246.9z"/>
				<path fill="#CDB789" d="M267.8,268.4h-0.1c-0.1-0.1-0.1-0.2-0.1-0.3c0.8-1.4,0.9-2.8,0.2-4.2c-9.5-18-148.9-26.9-150.3-27
					c-0.1,0-0.1-0.1-0.2-0.1l-8.5-20.4c0-0.1,0-0.2,0-0.2c0.2-0.2,36.9,0.2,73.3,2.8c34.9,2.4,79.7,7.4,94.3,17.5
					c4.6,3.2,6,6.7,4.3,10.5l0,0c-4.3,7.5-12.6,21.2-12.7,21.3C267.9,268.4,267.9,268.4,267.8,268.4z M117.6,236.6
					c2.3,0.1,36.6,2.4,71.5,6.7c48.4,6,75,12.9,79,20.5c0.5,0.9,0.6,1.7,0.5,2.6c2.4-3.9,8.2-13.7,11.6-19.6c1-2.3,0.8-4.5-0.6-6.6
					c-6.4-9.2-37.8-16.2-90.8-20.3c-38.2-2.9-76-3.4-79.7-3.3L117.6,236.6z M280.5,246.9L280.5,246.9L280.5,246.9z"/>
			</g>
			<g>
				<path id="path110_00000163787791284285137050000005287146306750250635_" fill="#CDB789" d="M289.9,227
					c8.2-22.1-187.3-30.1-187.3-30.1l-5.7-22.2c0,0,209.3,8.1,201.2,30.2L289.9,227z"/>
				<path fill="#CDB789" d="M289.9,227.2C289.9,227.2,289.8,227.2,289.9,227.2c-0.2,0-0.2-0.1-0.2-0.2c0,0,0,0,0-0.1
					c0.4-1.2,0.3-2.3-0.5-3.4c-12.7-19-184.9-26.3-186.7-26.4c-0.1,0-0.2-0.1-0.2-0.2l-5.7-22.2c0-0.1,0-0.1,0-0.2
					c0,0,0.1-0.1,0.2-0.1c0.5,0,47.5,1.9,95.5,6.1c64.5,5.7,99.9,12.6,105.4,20.8c0.8,1.2,1,2.4,0.5,3.6L290,227
					C290,227.1,290,227.2,289.9,227.2z M102.7,196.7c2.9,0.1,45.2,1.9,88.4,6c59.9,5.6,93,12.5,98.4,20.6c0.4,0.7,0.7,1.3,0.8,2
					l7.6-20.4c0.4-1.1,0.3-2.2-0.5-3.2c-12.6-18.9-192.2-26.3-200.3-26.7L102.7,196.7z"/>
			</g>
			<g>
				<path id="path112_00000150081687216371576700000000369447500563384727_" fill="#CDB789" d="M255.8,284.4
					c-11.8,12.7-28.7,29.3-39.8,32.8c11.1-16.2-61.9-25.3-74.5-40.4c-5.3-7-7.1-10.2-13.6-20.6C162.7,286,267.8,268.2,255.8,284.4z"
					/>
				<path fill="#CDB789" d="M216,317.5c-0.1,0-0.1,0-0.2-0.1c-0.1-0.1-0.1-0.2,0-0.2c1.1-1.6,1.4-3.2,0.8-4.7
					c-2.3-6.8-20.1-12.7-37.3-18.3c-16-5.2-32.6-10.7-38-17.2c-4.5-5.9-6.4-9-10.8-16c-0.9-1.4-1.8-2.9-2.9-4.6
					c-0.1-0.1,0-0.2,0-0.3c0.1-0.1,0.2-0.1,0.3,0c19.7,16.8,61.9,18.4,92.7,19.6c19.8,0.7,34.1,1.3,36,5.4c0.5,1,0.2,2.2-0.8,3.5
					l0,0C238.1,303.7,224.7,314.7,216,317.5L216,317.5z M128.7,257.2c0.8,1.3,1.6,2.5,2.2,3.6c4.3,6.9,6.3,10.1,10.7,15.9
					c5.3,6.4,21.9,11.8,37.9,17c18.1,5.9,35.2,11.5,37.6,18.5c0.5,1.5,0.3,3.1-0.6,4.6c8.6-3,21.8-14,39.1-32.6
					c0.9-1.2,1.1-2.2,0.7-3c-1.9-3.9-16.8-4.5-35.7-5.2C190.3,275,148.8,273.4,128.7,257.2z M255.8,284.4L255.8,284.4L255.8,284.4z"
					/>
			</g>
			<g>
				<path id="path114_00000126300290254279336570000006187089396754369165_" fill="#CDB789" d="M308.7,161.9
					c-1.7,7.7-4.9,22.8-4.9,22.8c4.9-22.8-174.9-25.8-210.6-29.4c-1.8-7.2-2.1-22.7-3.5-30.6C113.4,124,311.7,141.8,308.7,161.9z"/>
				<path fill="#CDB789" d="M303.8,185L303.8,185c-0.2,0-0.2-0.1-0.2-0.2l0,0l0,0l0,0l0,0c0.3-1.2-0.1-2.5-1-3.6
					c-11.3-14.8-110.2-20-169.3-23c-18.1-0.9-32.4-1.7-40.2-2.5c-0.1,0-0.2-0.1-0.2-0.2c-1-4.1-1.6-10.8-2.1-17.2
					c-0.4-5.1-0.8-9.9-1.4-13.4c0-0.1,0-0.1,0-0.2l0.1-0.1c10.9-0.3,60.7,3.3,111,9.7c35.8,4.5,97.4,13.7,106.9,24.4
					c1,1.1,1.4,2.3,1.3,3.4l0,0c-1.6,7.4-4.7,22-4.9,22.8l0,0C304,184.9,303.9,185,303.8,185z M93.5,155.2c7.7,0.8,22,1.5,40,2.5
					c59.1,3.1,158.1,8.2,169.5,23.2c0.5,0.7,0.9,1.4,1,2.1c0.9-4.3,3.2-15,4.5-21c0.1-1-0.2-2-1.2-3.1c-7-7.9-44.9-16.5-106.6-24.2
					c-50-6.3-99.4-10-110.7-9.7c0.6,3.4,1,8.2,1.4,13.2C91.9,144.5,92.5,151.1,93.5,155.2z M308.7,161.9L308.7,161.9L308.7,161.9z"
					/>
			</g>
		</g>
		<g id="g136_00000025406003798101184920000005391251526437108385_">
			<g>
				<path id="path122_00000154387379739210323770000006377526241975195523_" fill="#CDB789" d="M88.6,93.8c0,9.6,0.3,18.8,1,27.7
					h224c0.6-9,1-18.1,1-27.7C314.5,89,88.6,89,88.6,93.8z"/>
				<path fill="#CDB789" d="M313.5,121.7h-224c-0.1,0-0.2-0.1-0.2-0.2c-0.6-9-1-18.1-1-27.7c0-0.6,0-1.9,35.5-2.9
					c20.5-0.6,48.1-0.9,77.7-0.9s57.2,0.3,77.7,0.9c35.5,1,35.5,2.3,35.5,2.9c0,9.6-0.3,18.7-1,27.7
					C313.7,121.7,313.7,121.7,313.5,121.7z M89.7,121.3h223.6c0.6-9,0.9-18,0.9-27.5c-0.8-1.7-39.8-3.4-112.8-3.4
					c-72.9,0-111.9,1.7-112.8,3.4C88.8,103.4,89.1,112.4,89.7,121.3z"/>
			</g>
			<g>
				<path id="path124_00000044866554624257750680000002231532442070687639_" fill="#CDB789" d="M127.8,256.3
					c4.2,7.1,8.7,14,13.6,20.6c32.1,3.4,111.4-4.7,126.4-8.6c4.6-6.8,8.8-14,12.7-21.3C262.3,252.4,149.2,260.9,127.8,256.3z"/>
				<path fill="#CDB789" d="M160.9,277.9c-7.5,0-14.1-0.2-19.4-0.8c-0.1,0-0.1,0-0.1-0.1c-5.2-7-9.7-13.8-13.7-20.6
					c0-0.1,0-0.2,0-0.2c0-0.1,0.1-0.1,0.2-0.1c11.2,2.4,47.3,1.1,77.4-0.9c35.6-2.4,66.6-5.9,75.2-8.4c0.1,0,0.2,0,0.2,0.1
					s0.1,0.1,0,0.2c-3.8,7.3-8.1,14.4-12.7,21.3l-0.1,0.1C255.5,271.7,198.2,277.9,160.9,277.9z M141.6,276.7
					c31.9,3.4,111.1-4.7,126.2-8.6c4.5-6.7,8.7-13.7,12.4-20.8c-9.3,2.6-39.8,6-74.9,8.3c-29.8,2-65.4,3.3-77.1,1
					C132.1,263.2,136.5,269.8,141.6,276.7z"/>
			</g>
			<g>
				<path id="path126_00000098908066370913442480000015186717338365396923_" fill="#CDB789" d="M117.6,236.8
					c57.9-0.2,162.2-7,172.3-9.7c2.9-6.9,5.7-14.3,8.2-22.1c-45.9,5.1-169.5,4.2-189,11.4C111.7,223.6,114.5,230.3,117.6,236.8
					L117.6,236.8z"/>
				<path fill="#CDB789" d="M117.6,237c-0.1,0-0.1,0-0.2-0.1c-2.9-6.1-5.7-12.8-8.5-20.4c0,0,0-0.1,0-0.2l0.1-0.1
					c11.2-4.2,57.5-5.7,102.2-7.1c33.1-1.1,67.3-2.2,86.9-4.3c0.1,0,0.1,0,0.2,0.1c0,0.1,0.1,0.1,0,0.2c-2.4,7.3-5.2,14.8-8.2,22.1
					c0,0.1-0.1,0.1-0.1,0.1C279.5,230,173.7,236.8,117.6,237L117.6,237z M109.3,216.5c2.8,7.4,5.5,14,8.4,20
					c55.9-0.2,161.1-6.9,172-9.7c3-7.2,5.7-14.5,8.1-21.7c-19.6,2.2-53.7,3.2-86.6,4.3C166.8,211,120.8,212.4,109.3,216.5z"/>
			</g>
			<g>
				<path id="path353_00000036932426275132648230000001441980755025481404_" fill="#CDB789" d="M130.1,393.2h143.1
					c-7.7-32.1-40.3-61.6-52.6-71.7c-2.1-1.8-1.8-5.1,0.6-6.5c10.5-6,22.6-16.1,34.5-30.5c-10.7,1.8-60.8,10-101.7,7.6
					c9.8,10.5,19.4,18.1,27.9,23c2.4,1.4,2.7,4.7,0.5,6.5C170.2,331.6,137.7,361.1,130.1,393.2L130.1,393.2z"/>
				<path fill="#CDB789" d="M273.1,393.4h-143c-0.1,0-0.1,0-0.2-0.1c0,0-0.1-0.1,0-0.2c3.3-13.9,11.6-28.7,24.5-44.2
					c10.7-12.8,22.1-22.8,27.9-27.7c0.9-0.8,1.5-2,1.3-3.2c-0.1-1.2-0.8-2.3-1.9-2.9c-9.1-5.2-18.8-13.2-28-23
					c-0.1-0.1-0.1-0.1,0-0.2s0.1-0.1,0.2-0.1c39.2,2.3,87.7-5.2,101.7-7.6c0.1,0,0.2,0,0.2,0.1s0,0.2,0,0.2
					c-13.9,16.9-26.5,26-34.6,30.6c-1.1,0.6-1.8,1.7-1.9,2.9c-0.1,1.2,0.4,2.4,1.3,3.2c5.8,4.8,17.2,14.9,28,27.7
					c13,15.5,21.3,30.3,24.6,44.2c0,0.1,0,0.1,0,0.2C273.3,393.4,273.2,393.4,273.1,393.4z M130.3,393h142.6
					c-2.6-10.8-13-38.7-52.4-71.4c-1.1-0.9-1.6-2.2-1.5-3.6s0.9-2.6,2.1-3.3c8-4.6,20.3-13.5,34.1-30.1c-14.6,2.5-62,9.7-100.7,7.5
					c9.1,9.7,18.6,17.5,27.5,22.6c1.2,0.7,1.9,1.9,2.1,3.2c0.1,1.4-0.4,2.7-1.5,3.6C143.2,354.3,132.9,382.2,130.3,393z"/>
			</g>
			<g>
				<path id="path130_00000059287039787798448600000003502767192165068725_" fill="#CDB789" d="M93.3,155.3
					c13.6-18.1,188.2-17.6,218.4-13.5c0.6-5.5,1.2-11.2,1.6-17.1H89.8C90.5,135.4,91.8,145.6,93.3,155.3z"/>
				<path fill="#CDB789" d="M93.3,155.5L93.3,155.5c-0.1,0-0.2-0.1-0.2-0.2c-1.7-11-2.9-21.1-3.5-30.6c0-0.1,0-0.1,0.1-0.2l0.1-0.1
					h223.6c0.1,0,0.1,0,0.1,0.1c0,0,0.1,0.1,0.1,0.2c-0.4,5.8-0.9,11.4-1.6,17.1c0,0.1,0,0.1-0.1,0.1c0,0-0.1,0-0.2,0
					c-15.2-2-66.3-3.2-115.4-1.5c-81.7,2.7-99.5,10.6-102.8,15C93.4,155.5,93.4,155.5,93.3,155.5z M90,124.9
					c0.7,9.3,1.8,19.1,3.4,29.9c9-10.2,68.1-13.7,102.8-14.8c48.9-1.6,99.8-0.5,115.3,1.5c0.6-5.5,1.1-11,1.6-16.6H90z"/>
			</g>
			<g>
				<path id="path132_00000167357148454631589830000016983797814703549072_" fill="#CDB789" d="M96.9,174.8
					c1.7,7.7,3.5,15.1,5.7,22.2c27.9-8.1,165.7-8.5,201.3-12.3c1.8-7.2,3.4-14.9,4.9-22.8C285.1,161.3,127.6,157.5,96.9,174.8z"/>
				<path fill="#CDB789" d="M102.6,197.2c-0.1,0-0.2-0.1-0.2-0.1c-1.9-6.2-3.6-13-5.7-22.2c0-0.1,0-0.2,0.1-0.2
					c12.9-7.3,49.5-11.8,108.6-13.2c43.5-1.1,86.7-0.1,103.3,0.3c0.1,0,0.1,0,0.2,0.1c0,0,0.1,0.1,0,0.2c-1.7,8.9-3.3,16.3-4.9,22.8
					c0,0.1-0.1,0.1-0.2,0.2c-13.3,1.4-40.2,2.3-71.4,3.4C179.8,190.1,120.1,192.1,102.6,197.2L102.6,197.2z M97.1,175
					c2,9,3.7,15.7,5.6,21.8c17.8-5.1,77.3-7.1,129.8-8.9c31.1-1.1,57.9-2,71.2-3.3c1.6-6.4,3.2-13.8,4.8-22.4
					C277.9,161.3,127.2,158.2,97.1,175z"/>
			</g>
			<g>
				<path id="path134_00000012474498287176485950000016361360870136079531_" fill="#CDB789" d="M89.8,124.7h223.7
					c0.1-1.1,0.1-2.1,0.2-3.2H89.6C89.6,122.6,89.7,123.7,89.8,124.7z"/>
				<path fill="#CDB789" d="M313.4,124.9H89.8c-0.1,0-0.2-0.1-0.2-0.2c-0.1-1.1-0.2-2.1-0.2-3.2c0-0.1,0.1-0.2,0.2-0.2h224.1
					c0.1,0,0.1,0,0.1,0.1c0,0,0.1,0.1,0.1,0.2c-0.1,0.5-0.1,1.1-0.1,1.6s-0.1,1.1-0.1,1.6C313.6,124.9,313.5,124.9,313.4,124.9z
					 M90,124.5h223.3c0-0.5,0.1-0.9,0.1-1.4s0-0.9,0.1-1.4H89.8C89.8,122.7,89.9,123.6,90,124.5z"/>
			</g>
		</g>
	</g>
	<g id="g534_00000098209733943201751910000015013677577732871825_" transform="translate(0,-0.02502)">
		<g id="g510_00000113328406884893715650000015273134496868874129_">
			<g id="g508_00000145739449647600306010000008396695504676035716_">
				<g id="g506_00000179603777772815675430000016248319194920164747_">
					<g id="g504_00000042011215286351858060000007160499206114211979_">
						<g id="g502_00000023991647020958433040000010675856628683076243_">
							<path id="path486_00000109734605745892026860000005953186563340548781_" fill="#CDB789" d="M169.2,221.2
								c2.8,0.1,5.8,0.1,8.7-0.1C174.9,221.2,172,221.2,169.2,221.2z"/>
							<path id="path494_00000178170940106992985990000004715822853003586692_" fill="#CDB789" d="M179.6,389.1
								c0-0.9,0.1-1.7,0.1-2.6h-23.4c-0.1,0.9-0.1,1.7-0.3,2.6H179.6z"/>
						</g>
					</g>
				</g>
			</g>
		</g>
	</g>
	<g>
		<g>
			<path fill="#CDB789" d="M178.4,299c-1.3,1-2.7,2.3-4.3,3.7h0.3c7.7-2.3,16-2.1,24.7-2.1c8.8,0,19-0.3,28,2.1h1.8
				c-1.6-1.4-3-2.6-4.3-3.7c-2.6-2.1-2.2-6.2,0.7-7.9c1.2-0.7,2.5-1.5,3.8-2.3h-1.6c-2.9,1-5.7,1.9-8.7,2.4c-4.2,0.7-8.4,1-12.6,1
				c-10.5,0.9-21.5,0.2-31.2-3.5h-1.1c1.3,0.8,2.6,1.6,3.8,2.3C180.6,292.9,180.9,296.9,178.4,299z"/>
		</g>
	</g>
</g>
</svg>
